<svg width="100" height="72" viewBox="0 0 100 72" fill="none" xmlns="http://www.w3.org/2000/svg">
<g clip-path="url(#clip0_78_418)">
<path d="M19 22C19 10.6782 28.2528 1.5 39.6667 1.5C51.0806 1.5 60.3333 10.6782 60.3333 22C60.3333 33.3218 51.0806 42.5 39.6667 42.5H19V22Z" fill="url(#paint0_linear_78_418)"/>
<path d="M81.0013 22C81.0013 10.6782 71.7485 1.5 60.3346 1.5C48.9207 1.5 39.668 10.6782 39.668 22C39.668 33.3218 48.9207 42.5 60.3346 42.5C71.7485 42.5 81.0013 33.3218 81.0013 22Z" fill="#FDD79B" fill-opacity="0.6"/>
</g>
<path d="M6.43342 69.6008C3.18681 69.6008 0.925781 67.1651 0.925781 63.8043C0.925781 60.4434 3.18681 58.0078 6.43342 58.0078C7.92143 58.0078 9.00365 58.5176 9.67999 59.405C9.67999 58.7793 10.1992 58.2721 10.8395 58.2721H11.3999C12.3498 58.2721 13.1199 59.0245 13.1199 59.9525V67.656C13.1199 68.5841 12.3498 69.3365 11.3999 69.3365H10.8395C10.1992 69.3365 9.67999 68.8293 9.67999 68.2036C9.00365 69.091 7.92143 69.6008 6.43342 69.6008ZM6.97453 66.7309C8.65578 66.7309 9.738 65.5036 9.738 63.8043C9.738 62.105 8.65578 60.8777 6.97453 60.8777C5.33189 60.8777 4.28834 62.105 4.28834 63.8043C4.28834 65.5036 5.33189 66.7309 6.97453 66.7309Z" fill="#F89A05"/>
<path d="M17.4348 53.4746C18.3847 53.4746 19.1547 54.227 19.1547 55.155V67.6543C19.1547 68.5824 18.3847 69.3348 17.4348 69.3348C16.4849 69.3348 15.7148 68.5824 15.7148 67.6543V55.155C15.7148 54.227 16.4849 53.4746 17.4348 53.4746Z" fill="#F89A05"/>
<path d="M28.4247 69.5991C26.9367 69.5991 25.8545 69.0893 25.1781 68.2019C25.1781 68.8276 24.659 69.3348 24.0186 69.3348H23.4582C22.5083 69.3348 21.7383 68.5824 21.7383 67.6543V55.155C21.7383 54.227 22.5083 53.4746 23.4582 53.4746C24.4081 53.4746 25.1781 54.227 25.1781 55.155V59.4033C25.8545 58.5159 26.9367 58.0061 28.4247 58.0061C31.6713 58.0061 33.9324 60.4417 33.9324 63.8026C33.9324 67.1634 31.6713 69.5991 28.4247 69.5991ZM27.8836 66.7292C29.5262 66.7292 30.5698 65.5019 30.5698 63.8026C30.5698 62.1033 29.5262 60.876 27.8836 60.876C26.2024 60.876 25.1201 62.1033 25.1201 63.8026C25.1201 65.5019 26.2024 66.7292 27.8836 66.7292Z" fill="#F89A05"/>
<path d="M40.8748 69.6008C37.6282 69.6008 35.3672 67.1651 35.3672 63.8043C35.3672 60.4434 37.6282 58.0078 40.8748 58.0078C42.3628 58.0078 43.4451 58.5176 44.1214 59.405C44.1214 58.7793 44.6405 58.2721 45.2809 58.2721H45.8414C46.7914 58.2721 47.5613 59.0245 47.5613 59.9525V67.656C47.5613 68.5841 46.7914 69.3365 45.8414 69.3365H45.2809C44.6405 69.3365 44.1214 68.8293 44.1214 68.2036C43.4451 69.091 42.3628 69.6008 40.8748 69.6008ZM41.4159 66.7309C43.0972 66.7309 44.1794 65.5036 44.1794 63.8043C44.1794 62.105 43.0972 60.8777 41.4159 60.8777C39.7733 60.8777 38.7297 62.105 38.7297 63.8043C38.7297 65.5036 39.7733 66.7309 41.4159 66.7309Z" fill="#F89A05"/>
<path d="M55.2699 58.2717C56.0861 58.2717 56.7481 58.9184 56.7481 59.7161C56.7481 60.5139 56.0861 61.1606 55.2699 61.1606H54.5838V67.6556C54.5838 68.5837 53.8139 69.3361 52.8639 69.3361C51.9139 69.3361 51.144 68.5837 51.144 67.6556V61.1606H50.7287C49.912 61.1606 49.25 60.5139 49.25 59.7161C49.25 58.9184 49.912 58.2717 50.7287 58.2717H51.144V57.1766C51.144 55.0053 52.5352 53.4004 54.9898 53.4004C55.1144 53.4004 55.238 53.4021 55.3597 53.4056C56.0551 53.4256 56.5551 54.0078 56.5551 54.6875V55.4569C56.5551 55.9144 56.1343 56.2892 55.6662 56.2892C54.9898 56.2892 54.5838 56.7046 54.5838 57.3654V58.2717H55.2699Z" fill="#F89A05"/>
<path d="M63.5727 58.0078C67.0704 58.0078 69.5824 60.4434 69.5824 63.8043C69.5824 67.1651 67.0704 69.6008 63.5727 69.6008C60.0745 69.6008 57.5625 67.1651 57.5625 63.8043C57.5625 60.4434 60.0745 58.0078 63.5727 58.0078ZM63.5727 60.8777C61.9491 60.8777 60.8866 62.105 60.8866 63.8043C60.8866 65.5036 61.9491 66.7309 63.5727 66.7309C65.1958 66.7309 66.2588 65.5036 66.2588 63.8043C66.2588 62.105 65.1958 60.8777 63.5727 60.8777Z" fill="#F89A05"/>
<path d="M73.3176 69.3365C72.3676 69.3365 71.5977 68.5841 71.5977 67.656V59.9525C71.5977 59.0245 72.3676 58.2721 73.3176 58.2721H73.8778C74.518 58.2721 75.0375 58.7793 75.0375 59.405C75.7139 58.5176 76.7574 58.0078 78.2064 58.0078C79.0995 58.0078 79.6722 58.7915 79.6398 59.663L79.6203 60.1826C79.5861 61.0944 78.9069 60.9152 77.975 60.9721C76.1389 60.9721 75.0375 61.9917 75.0375 63.6721V67.656C75.0375 68.5841 74.2671 69.3365 73.3176 69.3365Z" fill="#F89A05"/>
<path d="M83.091 69.3365C82.1415 69.3365 81.3711 68.5841 81.3711 67.656V59.9525C81.3711 59.0245 82.1415 58.2721 83.091 58.2721H83.9799C84.4387 58.2721 84.8109 58.6358 84.8109 59.0844C84.8109 59.1626 84.9151 59.1969 84.9665 59.137C85.6174 58.3792 86.4322 58.0078 87.5938 58.0078C89.0239 58.0078 90.2026 58.5742 90.9563 59.5938C91.8067 58.5365 93.0049 58.0078 94.7248 58.0078C97.3336 58.0078 99.0729 59.8581 99.0729 62.9358V67.656C99.0729 68.5841 98.303 69.3365 97.353 69.3365C96.403 69.3365 95.6331 68.5841 95.6331 67.656V63.5022C95.6331 61.8218 94.9762 60.8966 93.7197 60.8966C92.5989 60.8966 91.9998 61.7651 91.9419 63.3323V67.656C91.9419 68.5841 91.172 69.3365 90.222 69.3365C89.272 69.3365 88.5021 68.5841 88.5021 67.656V63.5022C88.5021 61.8218 87.8452 60.8966 86.5891 60.8966C85.4683 60.8966 84.8692 61.7651 84.8109 63.3323V67.656C84.8109 68.5841 84.041 69.3365 83.091 69.3365Z" fill="#F89A05"/>
<defs>
<linearGradient id="paint0_linear_78_418" x1="26.2333" y1="7.1375" x2="50.7827" y2="39.1049" gradientUnits="userSpaceOnUse">
<stop stop-color="#F89A05"/>
<stop offset="0.525" stop-color="#F9A217"/>
<stop offset="1" stop-color="#FCB33F"/>
</linearGradient>
<clipPath id="clip0_78_418">
<rect width="62" height="41" fill="white" transform="translate(19 1.5)"/>
</clipPath>
</defs>
</svg>
