<svg width="717" height="100" viewBox="0 0 717 100" fill="none" xmlns="http://www.w3.org/2000/svg">
<g clip-path="url(#clip0_80_2)">
<path d="M0 50C0 22.3858 22.5678 0 50.4065 0C78.2453 0 100.813 22.3858 100.813 50C100.813 77.6143 78.2453 100 50.4065 100H0V50Z" fill="url(#paint0_linear_80_2)"/>
<path d="M151.219 50C151.219 22.3858 128.651 0 100.813 0C72.974 0 50.4062 22.3858 50.4062 50C50.4062 77.6142 72.974 100 100.813 100C128.651 100 151.219 77.6142 151.219 50Z" fill="#FDD79B" fill-opacity="0.6"/>
</g>
<path d="M196.961 94.9993C178.925 94.9993 166.363 81.4678 166.363 62.7965C166.363 44.125 178.925 30.5938 196.961 30.5938C205.228 30.5938 211.24 33.4258 214.998 38.356C214.998 34.88 217.882 32.0623 221.44 32.0623H224.553C229.83 32.0623 234.108 36.242 234.108 41.3978V84.195C234.108 89.351 229.83 93.5308 224.553 93.5308H221.44C217.882 93.5308 214.998 90.713 214.998 87.237C211.24 92.167 205.228 94.9993 196.961 94.9993ZM199.967 79.0553C209.308 79.0553 215.32 72.237 215.32 62.7965C215.32 53.356 209.308 46.5378 199.967 46.5378C190.842 46.5378 185.044 53.356 185.044 62.7965C185.044 72.237 190.842 79.0553 199.967 79.0553Z" fill="#F89A05"/>
<path d="M258.087 5.41992C263.364 5.41992 267.642 9.59965 267.642 14.7556V84.1961C267.642 89.3521 263.364 93.5318 258.087 93.5318C252.809 93.5318 248.531 89.3521 248.531 84.1961V14.7556C248.531 9.59967 252.809 5.41992 258.087 5.41992Z" fill="#F89A05"/>
<path d="M319.123 95.0004C310.857 95.0004 304.844 92.1681 301.087 87.2381C301.087 90.7141 298.203 93.5319 294.645 93.5319H291.532C286.254 93.5319 281.977 89.3521 281.977 84.1961V14.7556C281.977 9.59967 286.254 5.41992 291.532 5.41992C296.809 5.41992 301.087 9.59965 301.087 14.7556V38.3571C304.844 33.4268 310.857 30.5948 319.123 30.5948C337.16 30.5948 349.721 44.1261 349.721 62.7976C349.721 81.4689 337.16 95.0004 319.123 95.0004ZM316.117 79.0564C325.243 79.0564 331.041 72.2381 331.041 62.7976C331.041 53.3571 325.243 46.5389 316.117 46.5389C306.777 46.5389 300.765 53.3571 300.765 62.7976C300.765 72.2381 306.777 79.0564 316.117 79.0564Z" fill="#F89A05"/>
<path d="M388.301 94.9993C370.264 94.9993 357.703 81.4678 357.703 62.7965C357.703 44.125 370.264 30.5938 388.301 30.5938C396.568 30.5938 402.58 33.4258 406.338 38.356C406.338 34.88 409.222 32.0623 412.78 32.0623H415.893C421.171 32.0623 425.448 36.242 425.448 41.3978V84.195C425.448 89.351 421.171 93.5308 415.893 93.5308H412.779C409.222 93.5308 406.338 90.713 406.338 87.237C402.58 92.167 396.568 94.9993 388.301 94.9993ZM391.307 79.0553C400.648 79.0553 406.66 72.237 406.66 62.7965C406.66 53.356 400.648 46.5378 391.307 46.5378C382.182 46.5378 376.384 53.356 376.384 62.7965C376.384 72.237 382.182 79.0553 391.307 79.0553Z" fill="#F89A05"/>
<path d="M468.272 32.063C472.807 32.063 476.485 35.6555 476.485 40.0875C476.485 44.5192 472.807 48.112 468.272 48.112H464.46V84.1957C464.46 89.3517 460.183 93.5315 454.905 93.5315C449.628 93.5315 445.35 89.3517 445.35 84.1957V48.112H443.043C438.506 48.112 434.828 44.5192 434.828 40.0875C434.828 35.6555 438.506 32.063 443.043 32.063H445.35V25.979C445.35 13.9161 453.079 5 466.716 5C467.408 5 468.095 5.0097 468.771 5.02908C472.634 5.1399 475.412 8.37433 475.412 12.1507V16.425C475.412 18.9666 473.074 21.049 470.474 21.049C466.716 21.049 464.46 23.3567 464.46 27.028V32.063H468.272Z" fill="#F89A05"/>
<path d="M514.394 30.5938C533.825 30.5938 547.781 44.125 547.781 62.7965C547.781 81.4678 533.825 94.9993 514.394 94.9993C494.96 94.9993 481.004 81.4678 481.004 62.7965C481.004 44.125 494.96 30.5938 514.394 30.5938ZM514.394 46.5378C505.374 46.5378 499.471 53.356 499.471 62.7965C499.471 72.237 505.374 79.0553 514.394 79.0553C523.411 79.0553 529.317 72.237 529.317 62.7965C529.317 53.356 523.411 46.5378 514.394 46.5378Z" fill="#F89A05"/>
<path d="M568.532 93.5308C563.254 93.5308 558.977 89.351 558.977 84.195V41.3978C558.977 36.242 563.254 32.0623 568.532 32.0623H571.644C575.201 32.0623 578.087 34.88 578.087 38.356C581.844 33.4258 587.642 30.5938 595.692 30.5938C600.653 30.5938 603.835 34.9475 603.655 39.7895L603.547 42.6758C603.357 47.7413 599.584 46.746 594.406 47.0622C584.205 47.0622 578.087 52.7265 578.087 62.0622V84.195C578.087 89.351 573.807 93.5308 568.532 93.5308Z" fill="#F89A05"/>
<path d="M622.84 93.5308C617.565 93.5308 613.285 89.351 613.285 84.195V41.3978C613.285 36.242 617.565 32.0623 622.84 32.0623H627.778C630.327 32.0623 632.395 34.0825 632.395 36.5748C632.395 37.0093 632.974 37.2 633.259 36.8673C636.876 32.6573 641.402 30.5938 647.856 30.5938C655.801 30.5938 662.349 33.7405 666.536 39.4048C671.261 33.5308 677.917 30.5938 687.472 30.5938C701.966 30.5938 711.629 40.8733 711.629 57.9713V84.195C711.629 89.351 707.352 93.5308 702.074 93.5308C696.796 93.5308 692.519 89.351 692.519 84.195V61.1182C692.519 51.7825 688.869 46.6425 681.889 46.6425C675.662 46.6425 672.333 51.4678 672.012 60.174V84.195C672.012 89.351 667.735 93.5308 662.457 93.5308C657.179 93.5308 652.902 89.351 652.902 84.195V61.1182C652.902 51.7825 649.252 46.6425 642.274 46.6425C636.047 46.6425 632.719 51.4678 632.395 60.174V84.195C632.395 89.351 628.118 93.5308 622.84 93.5308Z" fill="#F89A05"/>
<defs>
<linearGradient id="paint0_linear_80_2" x1="17.6423" y1="13.75" x2="77.5189" y2="91.7194" gradientUnits="userSpaceOnUse">
<stop stop-color="#F89A05"/>
<stop offset="0.525" stop-color="#F9A217"/>
<stop offset="1" stop-color="#FCB33F"/>
</linearGradient>
<clipPath id="clip0_80_2">
<rect width="151.219" height="100" fill="white"/>
</clipPath>
</defs>
</svg>
